<?xml version="1.0" encoding="UTF-8" standalone="no"?>
<!-- Created with Inkscape (http://www.inkscape.org/) -->

<svg
   version="1.1"
   id="svg1"
   width="200"
   height="200"
   viewBox="0 0 200 200"
   sodipodi:docname="bare_bulb_black_01.svg"
   inkscape:version="1.3.2 (091e20e, 2023-11-25)"
   xmlns:inkscape="http://www.inkscape.org/namespaces/inkscape"
   xmlns:sodipodi="http://sodipodi.sourceforge.net/DTD/sodipodi-0.dtd"
   xmlns="http://www.w3.org/2000/svg"
   xmlns:svg="http://www.w3.org/2000/svg">
  <defs
     id="defs1" />
  <sodipodi:namedview
     id="namedview1"
     pagecolor="#505050"
     bordercolor="#ffffff"
     borderopacity="1"
     inkscape:showpageshadow="0"
     inkscape:pageopacity="0"
     inkscape:pagecheckerboard="1"
     inkscape:deskcolor="#505050"
     showgrid="false"
     showguides="true"
     inkscape:zoom="2.4495902"
     inkscape:cx="103.69081"
     inkscape:cy="91.443867"
     inkscape:window-width="1440"
     inkscape:window-height="847"
     inkscape:window-x="0"
     inkscape:window-y="205"
     inkscape:window-maximized="0"
     inkscape:current-layer="g1">
    <inkscape:page
       x="0"
       y="0"
       inkscape:label="1"
       id="page1"
       width="200"
       height="200"
       margin="0"
       bleed="0" />
  </sodipodi:namedview>
  <g
     id="g1"
     inkscape:groupmode="layer"
     inkscape:label="1"
     transform="translate(-1384.6133,-433.14674)">
    <g
       id="g2"
       transform="matrix(0.14518345,0,0,0.14518345,1181.9619,369.64887)">
      <path
         id="path3"
         d="m 2084.6133,559.08057 c -8.2057,0 -14.8652,-5.61029 -14.8652,-12.53914 v -61.95884 c 0,-6.92884 6.6595,-12.55206 14.8652,-12.55206 8.2058,0 14.8653,5.62322 14.8653,12.55206 v 61.95884 c 0,6.92885 -6.6595,12.53914 -14.8653,12.53914"
         style="fill:#000000;fill-opacity:1;fill-rule:nonzero;stroke:none;stroke-width:0.140677" />
      <path
         id="path4"
         d="m 2427.0662,678.86163 c -3.7966,0 -7.5934,-1.22806 -10.5021,-3.67125 -5.8023,-4.89931 -5.8023,-12.84938 0,-17.74869 l 51.8984,-43.80942 c 5.8022,-4.89931 15.2021,-4.89931 21.0043,0 5.8022,4.89932 5.8022,12.84939 0,17.7487 l -51.8831,43.80941 c -2.9088,2.44319 -6.7055,3.67125 -10.5175,3.67125"
         style="fill:#000000;fill-opacity:1;fill-rule:nonzero;stroke:none;stroke-width:0.140677" />
      <path
         id="path5"
         d="m 1690.262,1301.0212 c -3.7967,0 -7.6087,-1.2241 -10.5022,-3.6751 -5.8022,-4.8967 -5.8022,-12.8456 0,-17.7422 l 51.8831,-43.8133 c 5.8022,-4.9019 15.2021,-4.9019 21.0197,0 5.8022,4.898 5.8022,12.8442 0,17.7422 l -51.8984,43.8133 c -2.8934,2.451 -6.7055,3.6751 -10.5022,3.6751"
         style="fill:#000000;fill-opacity:1;fill-rule:nonzero;stroke:none;stroke-width:0.140677" />
      <path
         id="path6"
         d="m 2642.3145,968.03736 h -73.3926 c -8.2058,0 -14.8654,-5.61675 -14.8654,-12.54688 0,-6.93273 6.6596,-12.54819 14.8654,-12.54819 h 73.3926 c 8.2058,0 14.8499,5.61546 14.8499,12.54819 0,6.93013 -6.6441,12.54688 -14.8499,12.54688"
         style="fill:#000000;fill-opacity:1;fill-rule:nonzero;stroke:none;stroke-width:0.140677" />
      <path
         id="path7"
         d="m 1600.2895,968.03736 h -73.3774 c -8.2057,0 -14.8499,-5.61675 -14.8499,-12.54688 0,-6.93273 6.6442,-12.54819 14.8499,-12.54819 h 73.3774 c 8.221,0 14.8653,5.61546 14.8653,12.54819 0,6.93013 -6.6443,12.54688 -14.8653,12.54688"
         style="fill:#000000;fill-opacity:1;fill-rule:nonzero;stroke:none;stroke-width:0.140677" />
      <path
         id="path8"
         d="m 2478.9646,1301.0212 c -3.7966,0 -7.6086,-1.2241 -10.5021,-3.6751 l -51.8984,-43.8133 c -5.8023,-4.898 -5.8023,-12.8416 0,-17.7422 5.8022,-4.9019 15.2021,-4.9019 21.0196,0 l 51.8831,43.8133 c 5.8022,4.8966 5.8022,12.8416 0,17.7422 -2.8935,2.451 -6.7055,3.6751 -10.5022,3.6751"
         style="fill:#000000;fill-opacity:1;fill-rule:nonzero;stroke:none;stroke-width:0.140677" />
      <path
         id="path9"
         d="m 1742.1451,678.86163 c -3.7967,0 -7.5934,-1.22806 -10.5022,-3.67125 l -51.8831,-43.80941 c -5.8022,-4.89931 -5.8022,-12.84938 0,-17.7487 5.8023,-4.89931 15.2021,-4.89931 21.0044,0 l 51.8984,43.80942 c 5.8022,4.89931 5.8022,12.84938 0,17.74869 -2.9088,2.44319 -6.7055,3.67125 -10.5175,3.67125"
         style="fill:#000000;fill-opacity:1;fill-rule:nonzero;stroke:none;stroke-width:0.140677" />
      <path
         id="path10"
         d="m 2271.6465,590.81622 c -1.9135,0 -3.8579,-0.31025 -5.7255,-0.96952 -7.5781,-2.67588 -11.1452,-10.03131 -7.9762,-16.43015 l 28.3374,-57.15002 c 3.1691,-6.39883 11.8953,-9.39788 19.4428,-6.73494 7.578,2.67588 11.1451,10.03132 7.9761,16.43015 l -28.3374,57.15002 c -2.3883,4.80882 -7.8996,7.70446 -13.7172,7.70446"
         style="fill:#000000;fill-opacity:1;fill-rule:nonzero;stroke:none;stroke-width:0.140677" />
      <path
         id="path11"
         d="m 2532.7614,812.97867 c -5.8482,0 -11.3901,-2.93442 -13.7478,-7.79494 -3.1077,-6.41177 0.5206,-13.74134 8.114,-16.36552 l 67.8965,-23.50118 c 7.5935,-2.61124 16.2738,0.45245 19.3816,6.86421 3.123,6.41176 -0.5205,13.74134 -8.1139,16.36551 l -67.8966,23.48826 c -1.8372,0.64634 -3.7507,0.94366 -5.6338,0.94366"
         style="fill:#000000;fill-opacity:1;fill-rule:nonzero;stroke:none;stroke-width:0.140677" />
      <path
         id="path12"
         d="m 1568.5686,1146.5946 c -5.8633,0 -11.4053,-2.9369 -13.7629,-7.7936 -3.1078,-6.4118 0.5205,-13.7401 8.1138,-16.3694 l 67.9119,-23.4947 c 7.5781,-2.6216 16.2738,0.446 19.3816,6.8538 3.1078,6.4131 -0.5205,13.7414 -8.114,16.3708 l -67.9118,23.4946 c -1.8371,0.6361 -3.7508,0.9385 -5.6186,0.9385"
         style="fill:#000000;fill-opacity:1;fill-rule:nonzero;stroke:none;stroke-width:0.140677" />
      <path
         id="path13"
         d="m 2599.0352,1149.9026 c -1.9137,0 -3.8579,-0.3141 -5.7257,-0.976 l -67.6975,-23.9264 c -7.5629,-2.6759 -11.1452,-10.0262 -7.9762,-16.4198 3.1844,-6.4002 11.8953,-9.4018 19.4428,-6.7311 l 67.6976,23.9265 c 7.5781,2.6759 11.1451,10.0288 7.9761,16.4198 -2.3883,4.8114 -7.9149,7.707 -13.7171,7.707"
         style="fill:#000000;fill-opacity:1;fill-rule:nonzero;stroke:none;stroke-width:0.140677" />
      <path
         id="path14"
         d="m 1637.8584,810.10889 c -1.9137,0 -3.8579,-0.32317 -5.7257,-0.98244 l -67.6822,-23.92778 c -7.5781,-2.67587 -11.1452,-10.03131 -7.9762,-16.41722 3.1691,-6.39883 11.8953,-9.39789 19.4428,-6.73493 l 67.6823,23.92777 c 7.5781,2.6888 11.1452,10.0313 7.9761,16.41722 -2.3882,4.82174 -7.8995,7.71738 -13.7171,7.71738"
         style="fill:#000000;fill-opacity:1;fill-rule:nonzero;stroke:none;stroke-width:0.140677" />
      <path
         id="path15"
         d="m 1900.9787,589.62694 c -5.8481,0 -11.4053,-2.93441 -13.763,-7.79495 l -27.8169,-57.331 c -3.1078,-6.41176 0.5205,-13.74133 8.1138,-16.37843 7.5935,-2.61124 16.2739,0.45245 19.3969,6.86421 l 27.8169,57.33099 c 3.1078,6.41176 -0.5205,13.74134 -8.1138,16.37844 -1.8525,0.63342 -3.7508,0.93074 -5.6339,0.93074"
         style="fill:#000000;fill-opacity:1;fill-rule:nonzero;stroke:none;stroke-width:0.140677" />
      <path
         id="path18"
         d="m 2028.3824,1721.3161 c -6.2155,0 -10.9308,4.77 -9.7826,9.9279 6.185,27.8963 35.1348,49.019 69.9633,49.019 34.8286,0 63.7784,-21.1227 69.9634,-49.019 1.1328,-5.1579 -3.5824,-9.9279 -9.7826,-9.9279 h -120.3615"
         style="fill:#000000;fill-opacity:1;fill-rule:nonzero;stroke:none;stroke-width:0.140677" />
      <path
         id="path19"
         d="m 2087.3996,668.77861 c -17.9577,0 -35.8849,1.18929 -53.3833,3.58077 -160.8546,21.9758 -277.6183,137.9822 -277.6183,275.83124 0,105.06248 49.0662,169.38818 101.0105,237.48858 50.2757,65.9172 102.2659,134.0822 111.7423,240.6183 0.6889,7.7174 8.3895,13.7672 17.5444,13.7672 h 201.5312 c 9.2928,0 16.8402,-5.9206 17.5291,-13.7672 9.4918,-106.5361 61.482,-174.7011 111.7576,-240.6183 51.9444,-68.1004 101.0259,-132.4261 101.0259,-237.48858 0,-134.47511 -113.4416,-250.00321 -269.7186,-274.66782 -20.0551,-3.16709 -40.738,-4.74419 -61.4208,-4.74419 z m 100.8268,813.11759 h -201.5312 c -34.9203,0 -64.3141,-23.0487 -66.932,-52.4703 -8.5426,-95.9452 -54.899,-156.738 -103.9958,-221.0999 -53.5365,-70.1895 -108.8948,-142.769 -108.8948,-260.13538 0,-158.48045 134.2469,-291.84773 319.2287,-317.1199 43.2487,-5.90761 88.8243,-5.44224 131.8128,1.33147 179.7154,28.37465 310.1503,161.18607 310.1503,315.78843 0,117.36638 -55.3582,189.94588 -108.8948,260.13538 -49.112,64.3619 -95.4686,125.1547 -104.0111,221.0999 -2.6179,29.4216 -32.027,52.4703 -66.9321,52.4703"
         style="fill:#000000;fill-opacity:1;fill-rule:nonzero;stroke:none;stroke-width:0.140677" />
      <g
         id="g57"
         transform="matrix(1.1481948,-0.11425084,0,0.96952081,-77.743616,267.71518)"
         style="fill:#000000;fill-opacity:1">
        <path
           id="path16"
           d="m 1996.64,1547.5734 h -218.6134 c -12.3333,0 -22.3333,-10 -22.3333,-22.3334 v 0 c 0,-12.3333 10,-22.3333 22.3333,-22.3333 H 1996.64 c 12.3333,0 22.3333,10 22.3333,22.3333 v 0 c 0,12.3334 -10,22.3334 -22.3333,22.3334"
           style="fill:#000000;fill-opacity:1;fill-rule:nonzero;stroke:none;stroke-width:0.133333" />
        <path
           id="path17"
           d="m 1996.64,1617.72 h -218.6134 c -12.3333,0 -22.3333,-10 -22.3333,-22.3333 v 0 c 0,-12.3333 10,-22.3333 22.3333,-22.3333 H 1996.64 c 12.3333,0 22.3333,10 22.3333,22.3333 v 0 c 0,12.3333 -10,22.3333 -22.3333,22.3333"
           style="fill:#000000;fill-opacity:1;fill-rule:nonzero;stroke:none;stroke-width:0.133333" />
        <path
           id="path56"
           d="m 1996.64,1687.72 h -218.6134 c -12.3333,0 -22.3333,-10 -22.3333,-22.3333 v 0 c 0,-12.3333 10,-22.3333 22.3333,-22.3333 H 1996.64 c 12.3333,0 22.3333,10 22.3333,22.3333 v 0 c 0,12.3333 -10,22.3333 -22.3333,22.3333"
           style="fill:#000000;fill-opacity:1;fill-rule:nonzero;stroke:none;stroke-width:0.133333" />
      </g>
    </g>
  </g>
</svg>
