<?xml version="1.0" encoding="UTF-8" standalone="no"?>
<!-- Created with Inkscape (http://www.inkscape.org/) -->

<svg
   version="1.1"
   id="svg1"
   width="200"
   height="200"
   viewBox="0 0 200 200"
   sodipodi:docname="bare_bulb_white_01.svg"
   inkscape:version="1.3.2 (091e20e, 2023-11-25)"
   xmlns:inkscape="http://www.inkscape.org/namespaces/inkscape"
   xmlns:sodipodi="http://sodipodi.sourceforge.net/DTD/sodipodi-0.dtd"
   xmlns="http://www.w3.org/2000/svg"
   xmlns:svg="http://www.w3.org/2000/svg">
  <defs
     id="defs1" />
  <sodipodi:namedview
     id="namedview1"
     pagecolor="#505050"
     bordercolor="#ffffff"
     borderopacity="1"
     inkscape:showpageshadow="0"
     inkscape:pageopacity="0"
     inkscape:pagecheckerboard="1"
     inkscape:deskcolor="#505050"
     showgrid="false"
     showguides="true"
     inkscape:zoom="2.4495902"
     inkscape:cx="103.28258"
     inkscape:cy="91.443867"
     inkscape:window-width="1440"
     inkscape:window-height="847"
     inkscape:window-x="0"
     inkscape:window-y="205"
     inkscape:window-maximized="0"
     inkscape:current-layer="g1">
    <inkscape:page
       x="0"
       y="0"
       inkscape:label="1"
       id="page1"
       width="200"
       height="200"
       margin="0"
       bleed="0" />
  </sodipodi:namedview>
  <g
     id="g1"
     inkscape:groupmode="layer"
     inkscape:label="1"
     transform="translate(-1384.6133,-433.14674)">
    <path
       id="path3"
       d="m 1484.6133,450.81812 c -1.1914,0 -2.1582,-0.81453 -2.1582,-1.82048 v -8.9954 c 0,-1.00595 0.9668,-1.82235 2.1582,-1.82235 1.1913,0 2.1581,0.8164 2.1581,1.82235 v 8.9954 c 0,1.00595 -0.9668,1.82048 -2.1581,1.82048"
       style="fill:#fefefe;fill-opacity:1;fill-rule:nonzero;stroke:none;stroke-width:0.020424" />
    <path
       id="path4"
       d="m 1534.3317,468.20834 c -0.5512,0 -1.1024,-0.17829 -1.5247,-0.533 -0.8424,-0.7113 -0.8424,-1.86552 0,-2.57682 l 7.5348,-6.3604 c 0.8424,-0.7113 2.2071,-0.7113 3.0495,0 0.8424,0.7113 0.8424,1.86552 0,2.57682 l -7.5326,6.3604 c -0.4223,0.35471 -0.9735,0.533 -1.527,0.533"
       style="fill:#fefefe;fill-opacity:1;fill-rule:nonzero;stroke:none;stroke-width:0.020424" />
    <path
       id="path5"
       d="m 1427.36,558.53562 c -0.5512,0 -1.1047,-0.17772 -1.5248,-0.53357 -0.8424,-0.71092 -0.8424,-1.86497 0,-2.57587 l 7.5326,-6.36097 c 0.8424,-0.71167 2.2071,-0.71167 3.0517,0 0.8424,0.71111 0.8424,1.86477 0,2.57588 l -7.5348,6.36096 c -0.4201,0.35585 -0.9735,0.53357 -1.5247,0.53357"
       style="fill:#fefefe;fill-opacity:1;fill-rule:nonzero;stroke:none;stroke-width:0.020424" />
    <path
       id="path6"
       d="m 1565.5822,510.19187 h -10.6554 c -1.1913,0 -2.1582,-0.81546 -2.1582,-1.8216 0,-1.00651 0.9669,-1.82179 2.1582,-1.82179 h 10.6554 c 1.1914,0 2.156,0.81528 2.156,1.82179 0,1.00614 -0.9646,1.8216 -2.156,1.8216"
       style="fill:#fefefe;fill-opacity:1;fill-rule:nonzero;stroke:none;stroke-width:0.020424" />
    <path
       id="path7"
       d="m 1414.2975,510.19187 h -10.6532 c -1.1914,0 -2.156,-0.81546 -2.156,-1.8216 0,-1.00651 0.9646,-1.82179 2.156,-1.82179 h 10.6532 c 1.1935,0 2.1581,0.81528 2.1581,1.82179 0,1.00614 -0.9646,1.8216 -2.1581,1.8216"
       style="fill:#fefefe;fill-opacity:1;fill-rule:nonzero;stroke:none;stroke-width:0.020424" />
    <path
       id="path8"
       d="m 1541.8665,558.53562 c -0.5512,0 -1.1046,-0.17772 -1.5247,-0.53357 l -7.5348,-6.36096 c -0.8424,-0.71111 -0.8424,-1.86439 0,-2.57588 0.8424,-0.71167 2.2071,-0.71167 3.0517,0 l 7.5326,6.36097 c 0.8424,0.7109 0.8424,1.86439 0,2.57587 -0.4201,0.35585 -0.9735,0.53357 -1.5248,0.53357"
       style="fill:#fefefe;fill-opacity:1;fill-rule:nonzero;stroke:none;stroke-width:0.020424" />
    <path
       id="path9"
       d="m 1434.8925,468.20834 c -0.5512,0 -1.1024,-0.17829 -1.5247,-0.533 l -7.5326,-6.3604 c -0.8424,-0.7113 -0.8424,-1.86552 0,-2.57682 0.8424,-0.7113 2.2071,-0.7113 3.0495,0 l 7.5348,6.3604 c 0.8424,0.7113 0.8424,1.86552 0,2.57682 -0.4223,0.35471 -0.9735,0.533 -1.527,0.533"
       style="fill:#fefefe;fill-opacity:1;fill-rule:nonzero;stroke:none;stroke-width:0.020424" />
    <path
       id="path10"
       d="m 1511.7674,455.42561 c -0.2778,0 -0.5601,-0.0451 -0.8313,-0.14076 -1.1002,-0.38849 -1.6181,-1.45638 -1.158,-2.38539 l 4.1141,-8.29723 c 0.4601,-0.92901 1.727,-1.36442 2.8228,-0.97781 1.1002,0.3885 1.6181,1.45639 1.158,2.38539 l -4.1141,8.29724 c -0.3468,0.69816 -1.1469,1.11856 -1.9915,1.11856"
       style="fill:#fefefe;fill-opacity:1;fill-rule:nonzero;stroke:none;stroke-width:0.020424" />
    <path
       id="path11"
       d="m 1549.6769,487.67992 c -0.849,0 -1.6536,-0.42603 -1.9959,-1.1317 -0.4512,-0.93088 0.076,-1.99501 1.178,-2.376 l 9.8575,-3.41198 c 1.1024,-0.37911 2.3626,0.0657 2.8138,0.99657 0.4534,0.93088 -0.075,1.99501 -1.178,2.376 l -9.8574,3.4101 c -0.2668,0.0938 -0.5446,0.13701 -0.818,0.13701"
       style="fill:#fefefe;fill-opacity:1;fill-rule:nonzero;stroke:none;stroke-width:0.020424" />
    <path
       id="path12"
       d="m 1409.6921,536.11543 c -0.8513,0 -1.6559,-0.42639 -1.9981,-1.1315 -0.4512,-0.93089 0.076,-1.99484 1.1779,-2.37657 l 9.8597,-3.41104 c 1.1002,-0.38061 2.3627,0.0648 2.8139,0.99506 0.4512,0.93107 -0.076,1.99502 -1.178,2.37677 l -9.8597,3.41103 c -0.2667,0.0924 -0.5445,0.13625 -0.8157,0.13625"
       style="fill:#fefefe;fill-opacity:1;fill-rule:nonzero;stroke:none;stroke-width:0.020424" />
    <path
       id="path13"
       d="m 1559.2988,536.5957 c -0.2778,0 -0.5601,-0.0456 -0.8313,-0.1417 l -9.8285,-3.47372 c -1.098,-0.3885 -1.6181,-1.45564 -1.158,-2.38388 0.4623,-0.92921 1.727,-1.36499 2.8227,-0.97725 l 9.8286,3.47373 c 1.1002,0.3885 1.6181,1.45602 1.158,2.38389 -0.3467,0.69853 -1.1491,1.11893 -1.9915,1.11893"
       style="fill:#fefefe;fill-opacity:1;fill-rule:nonzero;stroke:none;stroke-width:0.020424" />
    <path
       id="path14"
       d="m 1419.7518,487.26327 c -0.2778,0 -0.5601,-0.0469 -0.8312,-0.14263 l -9.8264,-3.47392 c -1.1002,-0.38849 -1.6181,-1.45638 -1.158,-2.38351 0.4601,-0.929 1.727,-1.36441 2.8228,-0.9778 l 9.8263,3.47392 c 1.1002,0.39037 1.6181,1.45638 1.158,2.38351 -0.3467,0.70003 -1.1468,1.12043 -1.9915,1.12043"
       style="fill:#fefefe;fill-opacity:1;fill-rule:nonzero;stroke:none;stroke-width:0.020424" />
    <path
       id="path15"
       d="m 1457.9525,455.25294 c -0.849,0 -1.6558,-0.42602 -1.9981,-1.13169 l -4.0386,-8.32352 c -0.4512,-0.93088 0.076,-1.99501 1.178,-2.37787 1.1025,-0.37911 2.3627,0.0657 2.8161,0.99657 l 4.0386,8.32351 c 0.4512,0.93088 -0.076,1.99501 -1.178,2.37788 -0.269,0.092 -0.5446,0.13512 -0.818,0.13512"
       style="fill:#fefefe;fill-opacity:1;fill-rule:nonzero;stroke:none;stroke-width:0.020424" />
    <path
       id="path18"
       d="m 1476.4495,619.55548 c -0.9024,0 -1.587,0.69252 -1.4203,1.44137 0.8979,4.05008 5.101,7.11674 10.1575,7.11674 5.0565,0 9.2596,-3.06666 10.1575,-7.11674 0.1645,-0.74885 -0.5201,-1.44137 -1.4202,-1.44137 h -17.4745"
       style="fill:#fefefe;fill-opacity:1;fill-rule:nonzero;stroke:none;stroke-width:0.020424" />
    <path
       id="path19"
       d="m 1485.0178,466.74446 c -2.6072,0 -5.2099,0.17266 -7.7504,0.51986 -23.3534,3.19053 -40.3056,20.03274 -40.3056,40.04614 0,15.25333 7.1236,24.59236 14.6651,34.47941 7.2992,9.57008 14.8473,19.46651 16.2231,34.93379 0.1,1.12044 1.218,1.99877 2.5472,1.99877 h 29.259 c 1.3491,0 2.4449,-0.85957 2.5449,-1.99877 1.378,-15.46728 8.9262,-25.36371 16.2253,-34.93379 7.5415,-9.88705 14.6673,-19.22608 14.6673,-34.47941 0,-19.52356 -16.4698,-36.29633 -39.1586,-39.87723 -2.9117,-0.45981 -5.9145,-0.68877 -8.9173,-0.68877 z m 14.6384,118.05121 h -29.259 c -5.0699,0 -9.3374,-3.34629 -9.7175,-7.61782 -1.2402,-13.92965 -7.9704,-22.75576 -15.0984,-32.10004 -7.7726,-10.19036 -15.8097,-20.7277 -15.8097,-37.76735 0,-23.00874 19.4904,-42.37146 46.3467,-46.04057 6.279,-0.85768 12.8958,-0.79012 19.137,0.19331 26.0917,4.11953 45.0287,23.40155 45.0287,45.84726 0,17.03965 -8.0371,27.57699 -15.8097,37.76735 -7.1303,9.34428 -13.8605,18.17039 -15.1007,32.10004 -0.3801,4.27153 -4.6498,7.61782 -9.7174,7.61782"
       style="fill:#fefefe;fill-opacity:1;fill-rule:nonzero;stroke:none;stroke-width:0.020424" />
    <g
       id="g57"
       transform="matrix(0.16669888,-0.01658733,0,0.14075838,1170.6748,408.51668)"
       style="fill:#fefefe;fill-opacity:1">
      <path
         id="path16"
         d="m 1996.64,1547.5734 h -218.6134 c -12.3333,0 -22.3333,-10 -22.3333,-22.3334 v 0 c 0,-12.3333 10,-22.3333 22.3333,-22.3333 H 1996.64 c 12.3333,0 22.3333,10 22.3333,22.3333 v 0 c 0,12.3334 -10,22.3334 -22.3333,22.3334"
         style="fill:#fefefe;fill-opacity:1;fill-rule:nonzero;stroke:none;stroke-width:0.133333" />
      <path
         id="path17"
         d="m 1996.64,1617.72 h -218.6134 c -12.3333,0 -22.3333,-10 -22.3333,-22.3333 v 0 c 0,-12.3333 10,-22.3333 22.3333,-22.3333 H 1996.64 c 12.3333,0 22.3333,10 22.3333,22.3333 v 0 c 0,12.3333 -10,22.3333 -22.3333,22.3333"
         style="fill:#fefefe;fill-opacity:1;fill-rule:nonzero;stroke:none;stroke-width:0.133333" />
      <path
         id="path56"
         d="m 1996.64,1687.72 h -218.6134 c -12.3333,0 -22.3333,-10 -22.3333,-22.3333 v 0 c 0,-12.3333 10,-22.3333 22.3333,-22.3333 H 1996.64 c 12.3333,0 22.3333,10 22.3333,22.3333 v 0 c 0,12.3333 -10,22.3333 -22.3333,22.3333"
         style="fill:#fefefe;fill-opacity:1;fill-rule:nonzero;stroke:none;stroke-width:0.133333" />
    </g>
    <circle
       style="fill:#fefefe;stroke-width:6.096;stroke-linecap:round"
       id="path1"
       cx="1484.6133"
       cy="511.14673"
       r="20.411577" />
  </g>
</svg>
