<?xml version="1.0" encoding="UTF-8" standalone="no"?>
<!-- Created with Inkscape (http://www.inkscape.org/) -->

<svg
   width="588.922"
   height="485.65042"
   viewBox="0 0 155.81894 128.49501"
   version="1.1"
   id="svg1"
   inkscape:version="1.3.2 (091e20e, 2023-11-25)"
   sodipodi:docname="press_bridge_button.svg"
   xmlns:inkscape="http://www.inkscape.org/namespaces/inkscape"
   xmlns:sodipodi="http://sodipodi.sourceforge.net/DTD/sodipodi-0.dtd"
   xmlns="http://www.w3.org/2000/svg"
   xmlns:svg="http://www.w3.org/2000/svg">
  <sodipodi:namedview
     id="namedview1"
     pagecolor="#505050"
     bordercolor="#ffffff"
     borderopacity="1"
     inkscape:showpageshadow="0"
     inkscape:pageopacity="0"
     inkscape:pagecheckerboard="1"
     inkscape:deskcolor="#505050"
     inkscape:document-units="px"
     inkscape:zoom="0.38930277"
     inkscape:cx="-82.198235"
     inkscape:cy="136.14083"
     inkscape:window-width="1440"
     inkscape:window-height="847"
     inkscape:window-x="1595"
     inkscape:window-y="41"
     inkscape:window-maximized="0"
     inkscape:current-layer="layer1"
     showgrid="false" />
  <defs
     id="defs1" />
  <g
     inkscape:label="Layer 1"
     inkscape:groupmode="layer"
     id="layer1"
     transform="translate(-6.8383743,-90.842706)">
    <rect
       style="fill:#fefefe;stroke:#000000;stroke-width:3.175;stroke-linecap:round;stroke-dasharray:none;stroke-opacity:1"
       id="rect1"
       width="112.13959"
       height="112.13959"
       x="48.930206"
       y="92.430206"
       ry="22.767735" />
    <circle
       style="fill:#fefefe;stroke:#4669e3;stroke-width:2.64583;stroke-linecap:round;stroke-dasharray:none;stroke-opacity:1"
       id="path1"
       cx="105"
       cy="148.5"
       r="23.10755" />
    <path
       style="fill:#ffffff;stroke:#4669e3;stroke-width:0.21299;stroke-linecap:round;fill-opacity:1"
       d="m 11.248585,178.89607 11.479365,36.10566 15.22757,0.54985 15.378358,-2.16258 18.862519,-6.84818 4.20502,-3.96473 0.72086,-6.84818 3.604302,-6.96831 -0.480573,-8.89062 -1.441723,-6.3676 -3.243871,-3.00358 -1.201433,-0.96115 16.820078,-5.40646 18.021513,-6.24746 3.00359,-5.88702 -2.40287,-3.72445 -4.44531,-1.68201 -12.254627,3.72445 -42.170341,13.21578 -5.286312,0.48057 1.922296,-7.2086 -0.120145,-8.65033 -4.325162,-2.88344 -9.1309,3.72444 -4.565451,12.73521 -5.166167,7.92946 -8.650327,6.12732 -5.6467407,1.56186 z"
       id="path2" />
    <path
       d="m 23.858112,218.57182 8.938192,-1.43273 c 1.96568,0.12717 4.410669,0.28694 8.51398,0.0226 10.973329,-0.70474 28.300288,-7.35137 29.030329,-7.63325 l 0.209462,-0.0894 c 8.766868,-4.06458 8.782071,-8.63692 8.791033,-11.66289 0.0031,-1.12268 0.01223,-2.18607 0.421513,-2.92031 3.042342,-3.94694 3.796791,-7.49356 3.74287,-10.14434 -0.510889,-1.55684 -0.805136,-3.24119 -0.839361,-5.09276 0.213568,-1.8101 0.314782,-7.00731 -4.681541,-9.75854 9.840444,-3.14421 27.295811,-8.72062 29.429331,-9.39877 3.69669,-1.17502 6.15067,-5.2385 6.15067,-5.2385 0.94363,-1.65145 1.26178,-3.41132 0.74131,-5.04876 -1.29725,-4.08126 -7.26229,-5.84157 -13.29546,-3.92389 l -47.912543,15.22927 c -1.950318,0.61992 -3.468695,0.92329 -4.553013,1.06644 3.487256,-9.38339 3.25144,-15.36296 -0.711033,-17.78921 -3.511555,-2.15111 -8.405233,-0.63406 -8.612635,-0.56813 -8.069589,2.56606 -9.649642,10.13421 -9.830192,11.16639 -4.475414,14.80332 -13.857846,19.20972 -19.102687,20.52088 l -1.3694223,0.55277 c -1.4203956,0.41235 -2.5522226,-0.0778 -1.8829795,2.52784 1.6056947,6.25162 11.5226358,33.82025 13.4195728,39.49351 0.580875,1.73725 2.763312,0.44539 3.402604,0.12178 z M 11.248585,178.89607 c 2.296094,-0.61399 5.066893,-1.63922 7.944566,-3.39302 6.996538,-4.26137 11.940215,-11.07518 14.698684,-20.25229 l 0.04259,-0.19188 c 0.0103,-0.0608 1.054566,-6.18602 6.250404,-7.83865 0.026,-0.007 2.537293,-0.76089 4.26512,0.29772 1.71376,1.05113 3.863141,4.61113 -1.022631,16.67545 l -0.612346,1.50571 1.900673,0.26476 c 0.343748,0.0457 3.494277,0.4076 9.345406,-1.45332 l 47.914019,-15.22974 c 3.56294,-1.1314 7.08399,-0.0931 7.84984,2.31637 0.76627,2.41075 -1.50838,5.29369 -5.07132,6.42508 l -23.459786,7.45793 c -0.20093,0.0247 -0.404742,0.0617 -0.610416,0.12711 l -11.332289,3.60203 c -1.237498,0.39334 -2.025558,1.39157 -1.759536,2.22849 0.266021,0.83693 1.485808,1.19695 2.723306,0.80361 l 0.963184,-0.30616 0.01916,0.0603 c 0,0 0.284436,-0.0904 0.802694,-0.25514 0.05123,0.0141 0.09819,0.0361 0.153276,0.0469 7.19227,1.54249 5.801508,8.64819 5.787018,8.71806 -0.01665,0.0836 -0.01723,0.16304 -0.01744,0.24364 -0.124823,0.33513 -0.118688,0.67772 0.04758,0.98358 0.123743,0.21824 2.916893,5.47688 -2.254013,12.10865 l -0.122428,0.17589 c -0.928616,1.49169 -0.931128,3.02584 -0.936584,4.5054 -0.01,2.90054 -0.0174,5.40443 -5.877534,8.14961 -1.441783,0.54947 -17.380266,6.53709 -26.923443,7.14926 -3.713849,0.23839 -5.856112,0.0988 -7.746212,-0.0241 -3.404047,-0.22208 -5.788039,-0.27291 -11.482177,1.20441 L 11.2513,178.89524 Z"
       id="path1-4"
       style="stroke-width:0.21299;stroke-dasharray:none"
       sodipodi:nodetypes="ccccccccccscsssccccccssccccccccccccsccccsscccccccccccccccc" />
  </g>
</svg>
