<?xml version="1.0" encoding="UTF-8" standalone="no"?>
<!-- Created with Inkscape (http://www.inkscape.org/) -->

<svg
   width="108"
   height="108"
   viewBox="0 0 28.575001 28.575001"
   version="1.1"
   id="svg1"
   sodipodi:docname="house_icon.svg"
   inkscape:version="1.3.2 (091e20e, 2023-11-25)"
   inkscape:export-filename="house_icon_plain_fg.svg"
   inkscape:export-xdpi="96"
   inkscape:export-ydpi="96"
   xmlns:inkscape="http://www.inkscape.org/namespaces/inkscape"
   xmlns:sodipodi="http://sodipodi.sourceforge.net/DTD/sodipodi-0.dtd"
   xmlns="http://www.w3.org/2000/svg"
   xmlns:svg="http://www.w3.org/2000/svg">
  <sodipodi:namedview
     id="namedview1"
     pagecolor="#505050"
     bordercolor="#ffffff"
     borderopacity="1"
     inkscape:showpageshadow="0"
     inkscape:pageopacity="0"
     inkscape:pagecheckerboard="1"
     inkscape:deskcolor="#505050"
     showgrid="false"
     inkscape:zoom="4.90625"
     inkscape:cx="55.847134"
     inkscape:cy="59.312102"
     inkscape:window-width="1440"
     inkscape:window-height="847"
     inkscape:window-x="0"
     inkscape:window-y="205"
     inkscape:window-maximized="0"
     inkscape:current-layer="svg1" />
  <defs
     id="defs1" />
  <g
     id="layer3"
     style="display:inline"
     transform="matrix(0.21112783,0,0,0.21112783,-0.02578119,0)">
    <rect
       style="display:inline;fill:#9295ac;fill-opacity:1;stroke:none;stroke-width:0.935;stroke-linecap:round;stroke-dasharray:none;stroke-opacity:1"
       id="rect10"
       width="135.46666"
       height="135.46667"
       x="0"
       y="0" />
    <path
       id="rect13"
       style="display:inline;fill:#00205c;fill-opacity:0.896703;stroke:none;stroke-width:0.2;stroke-linecap:round"
       d="M 113.95962,0 0,135.46667 V 38.117849 L 32.205347,0.00283558 Z" />
    <rect
       style="display:inline;fill:#2c71ff;fill-opacity:0.674725;stroke:none;stroke-width:1.08233;stroke-linecap:round;stroke-dasharray:none;stroke-opacity:1"
       id="rect9"
       width="49.261543"
       height="135.46667"
       x="86.205116"
       y="0" />
    <rect
       style="display:inline;fill:#deff53;fill-opacity:0.382418;stroke:none;stroke-width:1.01857;stroke-linecap:round;stroke-dasharray:none;stroke-opacity:1"
       id="rect8"
       width="135.53204"
       height="55.667362"
       x="-0.032681074"
       y="79.275978" />
  </g>
  <g
     id="layer1"
     style="display:inline"
     transform="matrix(0.21112783,0,0,0.21112783,-0.02578119,0)">
    <g
       id="g8"
       style="stroke-width:6;stroke-dasharray:none">
      <path
         style="fill:#001495;stroke:#000000;stroke-width:6;stroke-linecap:round;stroke-dasharray:none;stroke-opacity:1"
         d="M 13.668791,108.60966 H 121.79788"
         id="path4" />
      <path
         style="fill:#001495;stroke:#000000;stroke-width:6;stroke-linecap:round;stroke-dasharray:none;stroke-opacity:1"
         d="M 104.66362,107.35966 V 73.833399"
         id="path5" />
      <path
         style="fill:#001495;stroke:#000000;stroke-width:6;stroke-linecap:round;stroke-dasharray:none;stroke-opacity:1"
         d="M 30.243707,107.35966 V 46.999296"
         id="path6" />
      <path
         style="fill:#001495;stroke:#000000;stroke-width:6;stroke-linecap:round;stroke-dasharray:none;stroke-opacity:1"
         d="M 13.932495,41.117849 119.95538,79.347255"
         id="path7" />
    </g>
  </g>
  <g
     id="layer2"
     style="display:inline"
     transform="matrix(0.21112783,0,0,0.21112783,-0.02578119,0)">
    <path
       style="fill:#000002;stroke-width:1;stroke-dasharray:none"
       d="m 67.055658,93.129735 c 4.792406,0 8.691343,-3.898936 8.691343,-8.691342 0,-1.96365 -0.643228,-3.817935 -1.860238,-5.36187 C 73.653562,78.780529 73.402387,78.489086 73.159615,78.207214 72.434568,77.365917 71.749905,76.57119 71.5062,75.67737 71.5009,75.65811 71.45508,75.47043 71.46185,74.831521 l 0.0012,-0.09232 c 0.0074,-0.518691 0.01716,-1.228798 -0.507953,-1.761378 -0.359606,-0.364741 -0.863591,-0.542151 -1.541134,-0.542151 H 64.71353 c -0.731583,0 -1.25751,0.179044 -1.607895,0.547287 -0.473989,0.498032 -0.442242,1.141377 -0.421116,1.567161 0.0037,0.07528 0.0077,0.151265 0.0086,0.226898 0.0076,0.63961 -0.04027,0.819938 -0.04225,0.827524 -0.247557,0.893704 -1.049638,1.836195 -1.75741,2.667571 -0.236119,0.277437 -0.459166,0.539467 -0.666922,0.802897 -1.217477,1.544168 -1.860938,3.398804 -1.860938,5.36327 -1.17e-4,4.792406 3.898236,8.691459 8.690058,8.691459 z M 61.601232,80.159192 c 0.187565,-0.237636 0.400224,-0.487644 0.625371,-0.752242 0.82519,-0.96957 1.760561,-2.068462 2.111296,-3.334843 0.05007,-0.180444 0.115317,-0.512972 0.105629,-1.315752 -0.0012,-0.09746 -0.0057,-0.195501 -0.01062,-0.29261 -0.0037,-0.07668 -0.0088,-0.17776 -0.0083,-0.257828 0.06163,-0.01004 0.15465,-0.01937 0.288875,-0.01937 h 4.700433 c 0.148931,0 0.236002,0.01576 0.280705,0.02766 0.02311,0.114032 0.01984,0.350968 0.01774,0.500366 l -0.0014,0.09851 c -0.0084,0.807566 0.05638,1.142545 0.105863,1.324507 0.347817,1.276418 1.234284,2.305047 2.016289,3.212522 0.241137,0.279888 0.469086,0.544369 0.678476,0.810251 0.971087,1.232183 1.484409,2.711573 1.484409,4.27815 0,3.827039 -3.113547,6.940586 -6.940585,6.940586 -3.826339,0 -6.939418,-3.113547 -6.939418,-6.940586 2.33e-4,-1.567394 0.513672,-3.047251 1.485225,-4.279317 z"
       id="path1" />
    <path
       style="fill:#000002;stroke-width:1;stroke-dasharray:none"
       d="m 64.894524,71.644676 h 4.323319 c 0.933154,0 1.885103,-0.779359 1.692399,-1.692399 l -0.722111,-3.421401 c -0.192704,-0.913039 -0.759245,-1.692399 -1.692399,-1.692399 h -2.879097 c -0.933154,0 -1.499695,0.77936 -1.692399,1.692399 l -0.722111,3.421401 c -0.192704,0.91304 0.759245,1.692399 1.692399,1.692399 z m 0.78047,-5.055558 h 2.762379 l 0.722112,3.304684 h -4.206603 z"
       id="path2" />
    <path
       style="fill:#000002;stroke-width:1;stroke-dasharray:none"
       d="m 67.056242,94.262709 c -0.483559,0 -0.875379,0.391819 -0.875379,0.875378 v 3.592437 c 0,0.48356 0.39182,0.875379 0.875379,0.875379 0.483559,0 0.875378,-0.391819 0.875378,-0.875379 v -3.592437 c 0,-0.483559 -0.391936,-0.875378 -0.875378,-0.875378 z"
       id="path3" />
    <path
       style="fill:#000002;stroke-width:1;stroke-dasharray:none"
       d="m 53.994685,92.58072 c 0.246393,0.415647 0.783447,0.552932 1.199434,0.306622 l 3.16007,-1.873419 c 0.415902,-0.246453 0.553073,-0.783534 0.306622,-1.199434 -0.127092,-0.214294 -0.331159,-0.3546 -0.556223,-0.40656 -0.211529,-0.04884 -0.441691,-0.01956 -0.643211,0.09994 l -3.160097,1.873532 c -0.4159,0.246453 -0.553072,0.783534 -0.306595,1.199321 z"
       id="path4-5" />
    <path
       style="fill:#000002;stroke-width:1;stroke-dasharray:none"
       d="m 52.930199,86.81382 c 4.66e-4,0 9.33e-4,0 0.0014,0 l 3.421097,-0.0055 c 0.483559,-8.17e-4 0.874795,-0.393336 0.873978,-0.876779 -8.17e-4,-0.483092 -0.39252,-0.873978 -0.875379,-0.873978 -4.67e-4,0 -9.34e-4,0 -0.0014,0 l -3.421096,0.0055 c -0.483559,8.17e-4 -0.874795,0.393337 -0.873978,0.876779 7e-4,0.483092 0.39252,0.873978 0.875379,0.873978 z"
       id="path5-0" />
    <path
       style="fill:#000002;stroke-width:1;stroke-dasharray:none"
       d="m 72.245399,92.82967 c -0.412828,0.251403 -0.543827,0.789904 -0.292368,1.202989 l 1.910658,3.137693 c 0.251209,0.412656 0.789791,0.543798 1.202989,0.292368 0.412829,-0.251402 0.543829,-0.789903 0.292369,-1.202988 l -1.910628,-3.137806 c -0.12183,-0.200121 -0.311082,-0.333964 -0.521003,-0.390213 -0.22303,-0.05964 -0.469194,-0.03159 -0.682016,0.09795 z"
       id="path6-2" />
    <path
       style="fill:#000002;stroke-width:1;stroke-dasharray:none"
       d="m 77.981307,86.80832 3.420979,0.0055 c 4.67e-4,0 9.34e-4,0 0.0014,0 0.482859,0 0.874561,-0.391119 0.875378,-0.873978 8.18e-4,-0.483442 -0.390535,-0.875962 -0.873978,-0.876779 l -3.420979,-0.0055 c -4.67e-4,0 -9.34e-4,0 -0.0014,0 -0.482859,0 -0.874561,0.391119 -0.875378,0.873978 -9.34e-4,0.483443 0.390418,0.876079 0.873978,0.876779 z"
       id="path7-5" />
    <path
       style="fill:#000002;stroke-width:1;stroke-dasharray:none"
       d="m 75.833462,90.868464 2.959905,1.715253 c 4.05e-4,2.33e-4 8.09e-4,4.67e-4 0.0012,7e-4 0.418168,0.241429 0.952951,0.09856 1.195088,-0.319198 0.24243,-0.418264 0.09977,-0.953873 -0.318497,-1.196302 l -2.959905,-1.715253 c -4.05e-4,-2.33e-4 -8.09e-4,-4.67e-4 -0.0012,-7e-4 -0.418168,-0.241429 -0.952951,-0.09856 -1.195088,0.319198 -0.24253,0.418206 -0.09993,0.953916 0.318497,1.196302 z"
       id="path11" />
    <path
       style="fill:#000002;stroke-width:1;stroke-dasharray:none"
       d="m 60.656984,97.136511 1.714758,-2.960192 c 2.32e-4,-4.04e-4 4.67e-4,-8.09e-4 7.13e-4,-0.0013 0.241357,-0.418205 0.0984,-0.952966 -0.319399,-1.195036 -0.418308,-0.242359 -0.953891,-0.09961 -1.196251,0.3187 l -1.714756,2.960193 c -2.33e-4,4.04e-4 -4.68e-4,8.08e-4 -7.13e-4,0.0013 -0.24136,0.418209 -0.0984,0.952968 0.3194,1.195034 0.418245,0.24246 0.953931,0.09977 1.196248,-0.318698 z"
       id="path12" />
  </g>
</svg>
